<?xml version="1.0" encoding="iso-8859-1"?>
<!-- Generator: Adobe Illustrator 19.0.0, SVG Export Plug-In . SVG Version: 6.00 Build 0)  -->
<svg version="1.1" id="Layer_1" xmlns="http://www.w3.org/2000/svg" xmlns:xlink="http://www.w3.org/1999/xlink" x="0px" y="0px"
	 viewBox="0 0 512 512" style="enable-background:new 0 0 512 512;" xml:space="preserve">
<g transform="translate(1 1)">
	<path style="fill:#00DA6C;" d="M449.207,413.897c-15.007,0-26.483-23.834-26.483-52.966c0-29.131,11.476-52.966,26.483-52.966
		c15.007,0,26.483,23.835,26.483,52.966C475.69,390.062,464.214,413.897,449.207,413.897"/>
	<path style="fill:#FFFFFF;" d="M422.724,360.931c0-29.131,11.476-52.966,26.483-52.966c-29.131,0-52.966,23.835-52.966,52.966
		c0,29.131,23.835,52.966,52.966,52.966C434.2,413.897,422.724,390.062,422.724,360.931"/>
	<path style="fill:#00AD55;" d="M449.207,307.966c15.007,0,26.483,23.835,26.483,52.966c0,29.131-11.476,52.966-26.483,52.966
		c29.131,0,52.966-23.834,52.966-52.966C502.172,331.8,478.338,307.966,449.207,307.966"/>
	<path style="fill:#00DA6C;" d="M255,202.034c-15.007,0-26.483-23.834-26.483-52.966S239.993,96.103,255,96.103
		s26.483,23.834,26.483,52.966S270.007,202.034,255,202.034"/>
	<path style="fill:#FFFFFF;" d="M228.517,149.069c0-29.131,11.476-52.966,26.483-52.966c-29.131,0-52.966,23.834-52.966,52.966
		s23.834,52.966,52.966,52.966C239.993,202.034,228.517,178.2,228.517,149.069"/>
	<path style="fill:#00AD55;" d="M255,96.103c15.007,0,26.483,23.834,26.483,52.966S270.007,202.034,255,202.034
		c29.131,0,52.966-23.834,52.966-52.966S284.131,96.103,255,96.103"/>
	<path style="fill:#00DA6C;" d="M352.103,307.966c-15.007,0-26.483-23.835-26.483-52.966s11.476-52.966,26.483-52.966
		s26.483,23.834,26.483,52.966C378.586,284.131,367.11,307.966,352.103,307.966"/>
	<path style="fill:#FFFFFF;" d="M325.621,255c0-29.131,11.476-52.966,26.483-52.966c-29.131,0-52.966,23.834-52.966,52.966
		c0,29.131,23.834,52.966,52.966,52.966C337.097,307.966,325.621,284.131,325.621,255"/>
	<path style="fill:#00AD55;" d="M352.103,202.034c15.007,0,26.483,23.834,26.483,52.966c0,29.131-11.476,52.966-26.483,52.966
		c29.131,0,52.966-23.835,52.966-52.966S381.234,202.034,352.103,202.034"/>
	<path style="fill:#00DA6C;" d="M157.897,307.966c-15.007,0-26.483-23.835-26.483-52.966s11.476-52.966,26.483-52.966
		c15.007,0,26.483,23.834,26.483,52.966C184.379,284.131,172.903,307.966,157.897,307.966"/>
	<path style="fill:#FFFFFF;" d="M131.414,255c0-29.131,11.476-52.966,26.483-52.966c-29.131,0-52.966,23.834-52.966,52.966
		c0,29.131,23.834,52.966,52.966,52.966C142.89,307.966,131.414,284.131,131.414,255"/>
	<path style="fill:#00AD55;" d="M157.897,202.034c15.007,0,26.483,23.834,26.483,52.966c0,29.131-11.476,52.966-26.483,52.966
		c29.131,0,52.966-23.835,52.966-52.966S187.028,202.034,157.897,202.034"/>
	<path style="fill:#00DA6C;" d="M60.793,413.897c-15.007,0-26.483-23.834-26.483-52.966c0-29.131,11.476-52.966,26.483-52.966
		s26.483,23.835,26.483,52.966C87.276,390.062,75.8,413.897,60.793,413.897"/>
	<path style="fill:#FFFFFF;" d="M34.31,360.931c0-29.131,11.476-52.966,26.483-52.966c-29.131,0-52.966,23.835-52.966,52.966
		c0,29.131,23.834,52.966,52.966,52.966C45.786,413.897,34.31,390.062,34.31,360.931"/>
	<path style="fill:#00AD55;" d="M60.793,307.966c15.007,0,26.483,23.835,26.483,52.966c0,29.131-11.476,52.966-26.483,52.966
		c29.131,0,52.966-23.834,52.966-52.966C113.759,331.8,89.924,307.966,60.793,307.966"/>
	<path d="M255,210.862c-34.428,0-61.793-27.366-61.793-61.793S220.572,87.276,255,87.276s61.793,27.366,61.793,61.793
		S289.428,210.862,255,210.862z M255,104.931c-24.717,0-44.138,19.421-44.138,44.138s19.421,44.138,44.138,44.138
		s44.138-19.421,44.138-44.138S279.717,104.931,255,104.931z"/>
	<path d="M157.897,316.793c-34.428,0-61.793-27.366-61.793-61.793s27.366-61.793,61.793-61.793S219.69,220.572,219.69,255
		S192.324,316.793,157.897,316.793z M157.897,210.862c-24.717,0-44.138,19.421-44.138,44.138s19.421,44.138,44.138,44.138
		s44.138-19.421,44.138-44.138S182.614,210.862,157.897,210.862z"/>
	<path d="M60.793,422.724C26.366,422.724-1,395.359-1,360.931s27.366-61.793,61.793-61.793s61.793,27.366,61.793,61.793
		S95.221,422.724,60.793,422.724z M60.793,316.793c-24.717,0-44.138,19.421-44.138,44.138s19.421,44.138,44.138,44.138
		s44.138-19.421,44.138-44.138S85.51,316.793,60.793,316.793z"/>
	<path d="M352.103,316.793c-34.428,0-61.793-27.366-61.793-61.793s27.366-61.793,61.793-61.793s61.793,27.366,61.793,61.793
		S386.531,316.793,352.103,316.793z M352.103,210.862c-24.717,0-44.138,19.421-44.138,44.138s19.421,44.138,44.138,44.138
		c24.717,0,44.138-19.421,44.138-44.138S376.821,210.862,352.103,210.862z"/>
	<path d="M449.207,422.724c-34.428,0-61.793-27.365-61.793-61.793s27.366-61.793,61.793-61.793S511,326.503,511,360.931
		S483.634,422.724,449.207,422.724z M449.207,316.793c-24.717,0-44.138,19.421-44.138,44.138s19.421,44.138,44.138,44.138
		c24.717,0,44.138-19.421,44.138-44.138S473.924,316.793,449.207,316.793z"/>
</g>
<g>
</g>
<g>
</g>
<g>
</g>
<g>
</g>
<g>
</g>
<g>
</g>
<g>
</g>
<g>
</g>
<g>
</g>
<g>
</g>
<g>
</g>
<g>
</g>
<g>
</g>
<g>
</g>
<g>
</g>
</svg>
