<?xml version="1.0" encoding="UTF-8" standalone="no"?>
<!-- Generator: Adobe Illustrator 19.0.0, SVG Export Plug-In . SVG Version: 6.00 Build 0)  -->

<svg
   xmlns:dc="http://purl.org/dc/elements/1.1/"
   xmlns:cc="http://creativecommons.org/ns#"
   xmlns:rdf="http://www.w3.org/1999/02/22-rdf-syntax-ns#"
   xmlns:svg="http://www.w3.org/2000/svg"
   xmlns="http://www.w3.org/2000/svg"
   xmlns:sodipodi="http://sodipodi.sourceforge.net/DTD/sodipodi-0.dtd"
   xmlns:inkscape="http://www.inkscape.org/namespaces/inkscape"
   version="1.1"
   id="Layer_1"
   x="0px"
   y="0px"
   viewBox="0 0 392.598 392.598"
   style="enable-background:new 0 0 392.598 392.598;"
   xml:space="preserve"
   sodipodi:docname="pchuman.svg"
   inkscape:version="0.92.4 (5da689c313, 2019-01-14)"><metadata
   id="metadata4357"><rdf:RDF><cc:Work
       rdf:about=""><dc:format>image/svg+xml</dc:format><dc:type
         rdf:resource="http://purl.org/dc/dcmitype/StillImage" /><dc:title></dc:title></cc:Work></rdf:RDF></metadata><defs
   id="defs4355">
	
	
	
	
<linearGradient
   id="SVGID_3_"
   gradientUnits="userSpaceOnUse"
   x1="334.34201"
   y1="296.89951"
   x2="427.07199"
   y2="296.89951"
   gradientTransform="matrix(1,0,0,-1,0,498.158)"><stop
     offset="0"
     style="stop-color:#959397"
     id="stop4058" /><stop
     offset="0.234"
     style="stop-color:#A6A4AA"
     id="stop4060" /><stop
     offset="0.731"
     style="stop-color:#C4C2CC"
     id="stop4062" /><stop
     offset="1"
     style="stop-color:#D0CED9"
     id="stop4064" /></linearGradient><linearGradient
   id="SVGID_2_"
   gradientUnits="userSpaceOnUse"
   x1="248.07899"
   y1="173.675"
   x2="248.07899"
   y2="111.1617"
   gradientTransform="matrix(0.42465437,0,0,-1.3103038,-0.9505914,528.33144)"><stop
     offset="0.115"
     style="stop-color:#737377"
     id="stop4035" /><stop
     offset="0.189"
     style="stop-color:#707073"
     id="stop4037" /><stop
     offset="0.497"
     style="stop-color:#656766"
     id="stop4039" /><stop
     offset="0.624"
     style="stop-color:#4D4D51"
     id="stop4041" /><stop
     offset="1"
     style="stop-color:#343439"
     id="stop4043" /></linearGradient><linearGradient
   id="SVGID_1_"
   gradientUnits="userSpaceOnUse"
   x1="201.01401"
   y1="139.12759"
   x2="295.14401"
   y2="139.12759"
   gradientTransform="matrix(0.42465437,0,0,-1.3103038,-0.9505914,528.33144)"><stop
     offset="0"
     style="stop-color:#47474A"
     id="stop4026" /><stop
     offset="0.62"
     style="stop-color:#616268"
     id="stop4028" /><stop
     offset="1"
     style="stop-color:#6D6E75"
     id="stop4030" /></linearGradient></defs><sodipodi:namedview
   pagecolor="#ffffff"
   bordercolor="#666666"
   borderopacity="1"
   objecttolerance="10"
   gridtolerance="10"
   guidetolerance="10"
   inkscape:pageopacity="0"
   inkscape:pageshadow="2"
   inkscape:window-width="1024"
   inkscape:window-height="710"
   id="namedview4353"
   showgrid="false"
   inkscape:zoom="1.227719"
   inkscape:cx="196.299"
   inkscape:cy="202.03723"
   inkscape:window-x="0"
   inkscape:window-y="0"
   inkscape:window-maximized="1"
   inkscape:current-layer="Layer_1" />

<path
   style="fill:#FFFFFF;"
   d="M62.287,265.503h61.026v105.244h-19.588v-42.861c0-6.012-4.848-10.925-10.925-10.925  c-6.012,0-10.925,4.849-10.925,10.925v42.861H62.287V265.503z"
   id="path4302" />

<path
   style="fill:#ffffff;stroke-width:1.00078905"
   d="m 272.16635,49.455 c 0,-15.257 12.4316,-27.669 27.71268,-27.669 15.28109,0 27.71268,12.412 27.71268,27.669 0,15.257 -12.43159,27.669 -27.71268,27.669 -15.21598,-10e-4 -27.71268,-12.413 -27.71268,-27.669 z"
   id="path4306"
   inkscape:connector-curvature="0" />
<path
   style="fill:#ffc10d;stroke-width:1.00078905"
   d="m 264.44698,260.63026 h 61.12234 v 105.244 H 306.0155 v -42.861 c 0,-6.012 -4.85565,-10.925 -10.94225,-10.925 -6.08659,0 -10.94224,4.849 -10.94224,10.925 v 42.861 h -19.68403 z"
   id="path4308"
   inkscape:connector-curvature="0" />
<path
   style="fill:#56ace0;stroke-width:1.00078905"
   d="m 350.31375,177.48383 v 62.061 H 247.49369 v -62.061 c 0,-25.277 20.59046,-45.834 45.90636,-45.834 h 11.00734 c 25.31692,-0.001 45.90636,20.557 45.90636,45.834 z"
   id="path4310"
   inkscape:connector-curvature="0" />
<path
   inkscape:connector-curvature="0"
   id="path4316"
   d="m 301.72679,113.972 h -10.50092 c -35.64103,0 -64.67287,29.40695 -64.67287,65.50848 v 70.57609 c 0,5.81867 4.63225,10.57369 10.43881,10.57369 h 9.45083 V 373.0646 c 0,5.81869 4.63225,10.57369 10.43881,10.57369 h 79.24995 c 5.74445,0 10.43881,-4.69209 10.43881,-10.57369 V 260.63026 h 9.45083 c 5.74445,0 10.43881,-4.69211 10.43881,-10.57369 V 179.48048 C 366.39965,143.37895 337.42992,113.972 301.72679,113.972 Z m 43.85639,125.57283 H 247.49369 V 179.4795 c 0,-24.46417 19.64312,-44.36012 43.79428,-44.36012 h 10.50092 c 24.15212,0 43.79429,19.89692 43.79429,44.36012 z m -19.88964,122.94512 h -18.7784 v -41.48273 c 0,-5.81867 -4.63225,-10.57369 -10.43881,-10.57369 -5.80656,0 -10.43882,4.69307 -10.43882,10.57369 v 41.48273 H 267.25912 V 260.63026 h 58.3102 v 101.85969 z"
   style="fill:#194f82;stroke-width:0.96165073" /><path
   inkscape:connector-curvature="0"
   id="path4318"
   d="m 294.99255,2.443556 c -27.3244,0 -49.53368,22.174 -49.53368,49.455 0,27.281 22.20928,49.455004 49.53368,49.455004 27.3244,0 49.53368,-22.174004 49.53368,-49.455004 0,-27.281 -22.27438,-49.455 -49.53368,-49.455 z m 0,77.123 c -15.21617,0 -27.71302,-12.412 -27.71302,-27.669 0,-15.257 12.43175,-27.669 27.71302,-27.669 15.28128,0 27.71302,12.412 27.71302,27.669 0,15.257 -12.43174,27.669 -27.71302,27.669 z"
   style="fill:#194f82;stroke-width:1.00079513" />
<g
   id="g4322">
</g>
<g
   id="g4324">
</g>
<g
   id="g4326">
</g>
<g
   id="g4328">
</g>
<g
   id="g4330">
</g>
<g
   id="g4332">
</g>
<g
   id="g4334">
</g>
<g
   id="g4336">
</g>
<g
   id="g4338">
</g>
<g
   id="g4340">
</g>
<g
   id="g4342">
</g>
<g
   id="g4344">
</g>
<g
   id="g4346">
</g>
<g
   id="g4348">
</g>
<g
   id="g4350">
</g>
<path
   style="fill:url(#SVGID_1_);stroke-width:0.74593985"
   d="m 119.17139,355.56136 0.0858,-43.96068 c 0,-3.80513 -1.00005,-6.89353 -2.23326,-6.89353 H 91.77057 c -1.23659,0 -2.233258,3.0884 -2.233258,6.89353 l 0.09555,43.82441 -5.221975,24.21835 v 4.69874 c 0,3.80514 0.999635,2.92723 2.232408,2.92723 h 35.503235 c 1.23363,0 2.23707,0.87791 2.23707,-2.92723 v -4.69874 z"
   id="path4033"
   inkscape:connector-curvature="0" /><path
   style="fill:url(#SVGID_2_);stroke-width:0.74593985"
   d="m 119.17139,351.6121 0.0858,-43.95677 c 0,-3.81822 -1.00005,-6.89086 -2.23326,-6.89086 H 91.77057 c -1.23659,0 -2.233258,3.07264 -2.233258,6.89086 l 0.09555,43.82181 -5.221975,28.16892 c 0,3.81037 0.999635,2.94557 2.232408,2.94557 h 35.503235 c 1.23363,0 2.23707,0.8648 2.23707,-2.94557 z"
   id="path4046"
   inkscape:connector-curvature="0" /><path
   style="fill:#08090b;stroke-width:0.74593985"
   d="M 166.34582,13.945483 H 42.448663 c -4.63935,0 -8.397966,11.607975 -8.397966,25.920422 V 295.80758 c 0,14.31244 3.75904,25.90995 8.397966,25.90995 H 166.34582 c 4.6364,0 8.39797,-11.59881 8.39797,-25.90995 V 39.865905 c 0,-14.312447 -3.76157,-25.920422 -8.39797,-25.920422 z"
   id="path4048"
   inkscape:connector-curvature="0" /><rect
   x="40.091831"
   y="30.980743"
   style="fill:#343433;stroke-width:0.74593985"
   width="128.35603"
   height="1.3600955"
   id="rect4050" /><g
   id="g4056"
   transform="matrix(0.42465439,0,0,1.3103038,-0.9505916,-124.40688)"><path
     style="fill:#08090b"
     d="m 102.199,105.588 c -10.925,0 -19.776,8.859 -19.776,19.782 V 296.929 H 96.648 V 118.885 h 237.694 l 9.296,-13.296 z"
     id="path4052"
     inkscape:connector-curvature="0" /><path
     style="fill:#08090b"
     d="m 393.959,105.588 h -50.321 l -9.296,13.296 h 64.566 v 178.045 h 14.827 V 125.371 c 0,-10.924 -8.858,-19.783 -19.776,-19.783 z"
     id="path4054"
     inkscape:connector-curvature="0" /></g><g
   style="opacity:0.3"
   id="g4069"
   transform="matrix(0.42465439,0,0,1.3103038,-0.9505916,-124.40688)"><linearGradient
     id="linearGradient4178"
     gradientUnits="userSpaceOnUse"
     x1="334.34201"
     y1="296.89951"
     x2="427.07199"
     y2="296.89951"
     gradientTransform="matrix(1,0,0,-1,0,498.158)"><stop
       offset="0"
       style="stop-color:#959397"
       id="stop4170" /><stop
       offset="0.234"
       style="stop-color:#A6A4AA"
       id="stop4172" /><stop
       offset="0.731"
       style="stop-color:#C4C2CC"
       id="stop4174" /><stop
       offset="1"
       style="stop-color:#D0CED9"
       id="stop4176" /></linearGradient><path
     style="fill:url(#SVGID_3_)"
     d="m 393.959,105.588 h -50.321 l -9.296,13.296 h 64.566 v 178.045 h 14.827 V 125.371 c 0,-10.924 -8.858,-19.783 -19.776,-19.783 z"
     id="path4067"
     inkscape:connector-curvature="0" /></g><rect
   x="40.091831"
   y="31.37384"
   style="fill:#d3d3d3;stroke-width:0.74593985"
   width="128.35603"
   height="271.69153"
   id="rect4071" /><path
   style="fill:#337180;stroke-width:0.74593985"
   d="m 104.39767,50.521306 c -20.65774,0 -37.403561,51.666574 -37.403561,115.412874 0,63.73579 16.745821,115.40764 37.403561,115.40764 20.65647,0 37.40271,-51.67185 37.40271,-115.40764 0,-63.7463 -16.74624,-115.412874 -37.40271,-115.412874 z"
   id="path4073"
   inkscape:connector-curvature="0" /><path
   style="fill:#a3d5e0;stroke-width:0.74593985"
   d="m 130.26337,171.34835 c 3.52293,-3.7016 7.36139,-6.18332 11.52894,-7.35865 -0.0114,-2.07815 -0.0396,-4.1419 -0.0854,-6.19119 -4.44443,1.23037 -8.38226,3.85754 -11.8725,7.50934 -0.94316,-12.42823 -2.16403,-23.52258 -3.5654,-33.40882 3.70257,-4.76425 7.55673,-10.63311 11.55274,-17.8044 -0.30194,-1.84752 -0.61703,-3.66753 -0.94953,-5.45743 -3.96246,7.1189 -7.77967,12.9196 -11.44062,17.61967 -2.74921,-17.66289 -6.05132,-31.182612 -9.24558,-41.33747 -0.96438,-3.066112 -1.93685,-5.892431 -2.90761,-8.509116 3.63803,-3.109349 7.51639,-5.441686 11.63511,-6.985218 -0.89432,-1.813475 -1.81413,-3.51686 -2.75898,-5.091847 -3.24394,1.514713 -6.27088,3.516853 -9.09821,5.929136 0.67477,-5.959275 1.35378,-11.064221 1.92623,-15.046231 -0.65524,-0.59619 -1.31813,-1.141274 -1.98781,-1.627399 -0.64463,4.465507 -1.39373,10.140447 -2.12031,16.74438 -4.02614,-9.533766 -7.85143,-15.49042 -10.69321,-19.078034 -1.384806,0.479572 -2.746242,1.187134 -4.080086,2.120084 2.193768,2.02048 7.370726,7.730785 13.012266,20.643826 -7.60599,8.053135 -13.589793,19.241827 -18.302609,31.752599 -2.919497,-17.754613 -6.070005,-30.059674 -7.490052,-35.190834 -0.555877,1.172736 -1.099854,2.388694 -1.632795,3.649187 1.311752,4.734142 4.602401,17.454576 7.567761,35.828967 -2.858773,8.25753 -5.20329,16.98022 -7.123998,25.6872 -5.246179,-5.28446 -9.238359,-12.17404 -11.815585,-17.43361 -0.282396,1.92355 -0.547803,3.8772 -0.796653,5.85576 2.606956,5.23727 6.45942,11.75736 11.477984,16.95924 -1.169071,5.79942 -2.16531,11.54773 -3.001454,17.09948 -1.062914,7.04552 -1.921563,14.00191 -2.620119,20.71067 -4.001941,-19.75545 -6.073833,-37.60835 -6.875156,-45.50818 -0.350338,3.68197 -0.642501,7.44123 -0.873087,11.26601 1.280332,10.51256 3.487685,25.80512 6.993629,42.07908 -1.41537,15.96608 -1.929628,29.98501 -2.10331,39.53975 0.601734,3.01763 1.246359,5.94746 1.932601,8.77117 0.0051,-6.98522 0.211477,-22.60405 1.693523,-41.55367 0.638679,2.71626 1.309208,5.44563 2.023054,8.17106 3.203591,12.23037 7.444188,25.18928 12.909921,36.21548 -1.336816,9.63206 -3.018448,19.15666 -5.044896,28.56463 0.583894,1.0181 1.176716,1.98642 1.780573,2.90756 2.037071,-9.55604 3.665615,-18.98238 4.951473,-28.21607 3.1641,5.87148 6.709113,11.06812 10.670285,15.13531 -0.8769,10.39726 -1.2574,19.18024 -1.42343,24.78834 0.66839,0.12971 1.34062,0.2044 2.01753,0.22536 0.16561,-5.29625 0.53039,-13.49481 1.33425,-23.14519 5.0984,4.60048 10.84696,7.34162 17.31232,7.34162 0.21147,0 0.4255,-0.0114 0.63783,-0.0169 1.1041,-2.00216 2.17211,-4.17202 3.19976,-6.50174 -7.43569,1.25135 -14.31975,-0.96045 -20.62885,-6.58951 0.70408,-7.28659 1.65658,-15.16808 2.94922,-23.10984 2.03961,-12.53043 4.57354,-23.28279 7.58263,-32.27539 3.45881,12.08361 7.95038,22.40357 13.44457,30.90874 -0.0343,7.67709 -0.16011,15.54414 -0.37796,23.59465 0.75122,-2.09911 1.47569,-4.29386 2.16957,-6.57379 0.0998,-4.79833 0.16773,-9.48791 0.20129,-14.05958 0.8612,1.21204 1.74618,2.37822 2.65111,3.51032 0.40682,-1.70078 0.79963,-3.44086 1.17629,-5.21239 -1.31388,-1.61559 -2.5751,-3.32292 -3.79471,-5.10756 0.0114,-19.70958 -0.59197,-37.20085 -1.6226,-52.73844 z M 111.94844,81.056627 c 0.93594,2.515784 1.87189,5.229425 2.79848,8.173671 3.56922,11.345922 6.51504,24.514472 8.83153,39.327462 -4.74126,5.68541 -9.20693,9.50102 -13.37108,11.88576 -0.94529,-21.47064 0.18769,-42.567832 1.74107,-59.386893 z m -2.00607,-1.508161 c -1.61071,17.444071 -2.76194,39.366764 -1.72961,61.944634 -4.69242,2.23273 -8.978039,2.66252 -12.812665,1.95102 -0.374551,-4.67122 -0.799198,-9.1066 -1.254855,-13.26683 -0.741874,-6.77558 -1.583539,-13.09254 -2.465968,-18.91291 C 96.741151,97.476049 102.83622,86.888792 109.94237,79.548466 Z M 90.127162,115.69453 c 0.758429,5.12851 1.478216,10.62786 2.118175,16.46395 0.394075,3.6007 0.739743,7.19094 1.047621,10.77595 -2.671075,-0.8124 -5.102645,-2.15284 -7.270507,-3.77107 -0.654391,-0.48874 -1.290528,-1.01285 -1.914767,-1.55794 1.786095,-7.97845 3.795981,-15.27552 6.019478,-21.91089 z m 1.689695,116.58297 c -4.419376,-9.13414 -8.43958,-20.56261 -12.041497,-34.28148 -1.073952,-4.08947 -2.059575,-8.20512 -2.961969,-12.28017 0.751642,-8.05183 1.738112,-16.53605 3.034582,-25.10019 0.933815,-6.16891 1.972946,-12.02335 3.108047,-17.58952 0.8009,0.72722 1.625999,1.41906 2.479557,2.06503 2.468519,1.86195 5.266567,3.37011 8.360593,4.19167 2.03452,28.29077 1.36994,56.04171 -1.979313,82.99466 z m 15.189473,-5.53866 c -1.33555,8.2405 -2.31947,16.34865 -3.04988,23.83835 -3.69067,-3.77497 -7.177504,-8.76068 -10.454139,-14.96105 4.049932,-32.24788 3.951831,-61.88433 2.354284,-85.90613 0.969488,0.14936 1.956383,0.25025 2.97938,0.25025 3.014615,0 6.256425,-0.70232 9.708015,-2.34805 0.35247,5.54914 0.84294,11.11792 1.50286,16.64609 1.21536,10.18762 2.92289,19.57463 5.11241,28.14401 -3.73441,11.00787 -6.34518,23.17798 -8.15293,34.33653 z m 9.64942,-38.52687 c -2.01797,-7.96534 -3.59895,-16.65004 -4.72259,-26.05408 -0.6166,-5.15999 -1.07608,-10.37237 -1.40476,-15.58738 4.3268,-2.47123 8.96659,-6.44276 13.88832,-12.36927 1.46761,10.34747 2.64179,21.45229 3.51868,33.26076 -4.52128,5.46658 -8.23616,12.69161 -11.27965,20.74997 z m 1.24465,4.61489 c 3.0435,-8.10685 6.53415,-14.55093 10.45457,-19.3414 0.95632,14.80905 1.46166,30.67158 1.51134,47.49721 -4.86356,-7.8828 -8.85998,-17.28029 -11.96591,-28.15581 z"
   id="path4075"
   inkscape:connector-curvature="0" /><g
   id="g4101"
   transform="matrix(0.42465439,0,0,1.3103038,-0.9505916,-124.40688)"><circle
     style="fill:#baebf4"
     cx="306.129"
     cy="224.179"
     r="6.888"
     id="circle4077" /><circle
     style="fill:#baebf4"
     cx="276.409"
     cy="241.489"
     r="6.888"
     id="circle4079" /><circle
     style="fill:#baebf4"
     cx="248.459"
     cy="289.509"
     r="6.888"
     id="circle4081" /><path
     style="fill:#baebf4"
     d="m 219.535,268.454 c -3.801,0 -6.888,3.083 -6.888,6.888 0,3.805 3.087,6.887 6.888,6.887 3.804,0 6.89,-3.082 6.89,-6.887 0,-3.805 -3.086,-6.888 -6.89,-6.888 z"
     id="path4083"
     inkscape:connector-curvature="0" /><circle
     style="fill:#baebf4"
     cx="180.379"
     cy="236.96899"
     r="6.888"
     id="circle4085" /><circle
     style="fill:#baebf4"
     cx="196.709"
     cy="201.149"
     r="6.888"
     id="circle4087" /><circle
     style="fill:#baebf4"
     cx="225.439"
     cy="206.85899"
     r="6.8870001"
     id="circle4089" /><circle
     style="fill:#baebf4"
     cx="215.009"
     cy="178.91901"
     r="6.888"
     id="circle4091" /><path
     style="fill:#baebf4"
     d="m 264.798,142.901 c -4.781,0 -8.66,3.874 -8.66,8.659 0,4.784 3.879,8.658 8.66,8.658 4.782,0 8.658,-3.874 8.658,-8.658 0,-4.785 -3.876,-8.659 -8.658,-8.659 z"
     id="path4093"
     inkscape:connector-curvature="0" /><circle
     style="fill:#baebf4"
     cx="259.67899"
     cy="205.289"
     r="6.888"
     id="circle4095" /><path
     style="fill:#baebf4"
     d="m 296.875,187.376 c -3.806,0 -6.886,3.082 -6.886,6.887 0,3.806 3.08,6.889 6.886,6.889 3.805,0 6.888,-3.083 6.888,-6.889 0,-3.805 -3.083,-6.887 -6.888,-6.887 z"
     id="path4097"
     inkscape:connector-curvature="0" /><circle
     style="fill:#baebf4"
     cx="310.259"
     cy="266.67899"
     r="6.888"
     id="circle4099" /></g></svg>